<svg width="24" height="24" viewBox="0 0 24 24" fill="none" xmlns="http://www.w3.org/2000/svg">
<g clip-path="url(#clip0_509_5)">
<path d="M18.427 4.91098L14.508 0.991985C13.8413 0.355155 12.9549 -0.000209808 12.033 -0.000209808C11.111 -0.000209808 10.2246 0.355155 9.55796 0.991985L5.63896 4.91098C5.36573 5.19388 5.21453 5.57279 5.21795 5.96608C5.22137 6.35938 5.37912 6.73559 5.65724 7.01371C5.93535 7.29182 6.31157 7.44957 6.70486 7.45299C7.09816 7.45641 7.47706 7.30522 7.75996 7.03198L10.54 4.25198L10.563 22.502C10.563 22.8998 10.721 23.2813 11.0023 23.5626C11.2836 23.8439 11.6651 24.002 12.063 24.002V24.002C12.4608 24.002 12.8423 23.8439 13.1236 23.5626C13.4049 23.2813 13.563 22.8998 13.563 22.502L13.54 4.26598L16.306 7.03198C16.4443 7.17524 16.6098 7.28952 16.7929 7.36813C16.9759 7.44674 17.1727 7.48812 17.3719 7.48985C17.571 7.49158 17.7685 7.45363 17.9529 7.37821C18.1372 7.30279 18.3047 7.19141 18.4456 7.05057C18.5864 6.90973 18.6978 6.74225 18.7732 6.55791C18.8486 6.37357 18.8866 6.17605 18.8848 5.97688C18.8831 5.77771 18.8417 5.58088 18.7631 5.39787C18.6845 5.21487 18.5702 5.04935 18.427 4.91098V4.91098Z" fill="white"/>
</g>
<defs>
<clipPath id="clip0_509_5">
<rect width="24" height="24" fill="white"/>
</clipPath>
</defs>
</svg>
