<svg width="24" height="24" viewBox="0 0 24 24" fill="none" xmlns="http://www.w3.org/2000/svg">
<g clip-path="url(#clip0_509_7)">
<path d="M13.0001 3.99999C13.0001 4.26521 13.1055 4.51956 13.293 4.7071C13.4806 4.89464 13.7349 4.99999 14.0001 4.99999H17.9661C17.8925 4.35067 17.6076 3.74353 17.1551 3.27199L14.8711 0.912992C14.3715 0.40654 13.7086 0.0933668 13.0001 0.0289924V3.99999ZM11.0001 3.99999V-7.62939e-06H7.00012C5.67453 0.00158023 4.40368 0.528874 3.46634 1.46621C2.529 2.40355 2.00171 3.6744 2.00012 4.99999V15C2.00171 16.3256 2.529 17.5964 3.46634 18.5338C4.40368 19.4711 5.67453 19.9984 7.00012 20H13.0001C14.3257 19.9984 15.5966 19.4711 16.5339 18.5338C17.4712 17.5964 17.9985 16.3256 18.0001 15V6.99999H14.0001C13.2045 6.99999 12.4414 6.68392 11.8788 6.12131C11.3162 5.5587 11.0001 4.79564 11.0001 3.99999V3.99999ZM17.0001 24H8.00012C7.73491 24 7.48055 23.8946 7.29302 23.7071C7.10548 23.5196 7.00012 23.2652 7.00012 23C7.00012 22.7348 7.10548 22.4804 7.29302 22.2929C7.48055 22.1053 7.73491 22 8.00012 22H17.0001C17.7958 22 18.5588 21.6839 19.1214 21.1213C19.6841 20.5587 20.0001 19.7956 20.0001 19V7.99999C20.0001 7.73478 20.1055 7.48042 20.293 7.29289C20.4806 7.10535 20.7349 6.99999 21.0001 6.99999C21.2653 6.99999 21.5197 7.10535 21.7072 7.29289C21.8948 7.48042 22.0001 7.73478 22.0001 7.99999V19C21.9985 20.3256 21.4712 21.5964 20.5339 22.5338C19.5966 23.4711 18.3257 23.9984 17.0001 24V24Z" fill="black"/>
</g>
<defs>
<clipPath id="clip0_509_7">
<rect width="24" height="24" fill="white"/>
</clipPath>
</defs>
</svg>
